{"title":"The Fourth State 2012 BRRiP x264 AC3-OFFLiNE","uid":8320721,"size":2145832899,"categoryP":"video","categoryS":"movies","magnet":"?xt=urn:btih:c76e12e7fef640782c41d9b3c042ca520abc6b39&amp;dn=The+Fourth+State+2012+BRRiP+x264+AC3-OFFLiNE&amp;tr=udp%3A%2F%2Ftracker.openbittorrent.com%3A80&amp;tr=udp%3A%2F%2Fopen.demonii.com%3A1337&amp;tr=udp%3A%2F%2Ftracker.coppersurfer.tk%3A6969&amp;tr=udp%3A%2F%2Fexodus.desync.com%3A6969","seeders":1,"leechers":1,"uploader":"Gh0stNet","files":3,"time":1364664540,"description":"The Fourth State 2012 BRRiP x264 AC3-OFFLiNE\n\niMDB &lt;a href=&quot; http://www.imdb.com/title/tt1709122&quot; rel=&quot;nofollow&quot; target=&quot;_NEW&quot;&gt; http://www.imdb.com/title/tt1709122&lt;/a&gt;\n\nSource  1080p CHD  -  MANY THANKX\n\nMedia Info\nThe Fourth State 2012 BRRiP x264 AC3-OFFLiNE.mp4\nFormat                                   : MPEG-4\nFormat profile                           : Base Media\nCodec ID                                 : isom\nFile size                                : 2.00 GiB\nDuration                                 : 1h 57mn\nOverall bit rate mode                    : Variable\nOverall bit rate                         : 2 442 Kbps\nEncoded date                             : UTC 2013-03-30 04:44:47\nTagged date                              : UTC 2013-03-30 04:44:47\n\nVideo\nID                                       : 1\nFormat                                   : AVC\nFormat/Info                              : Advanced Video Codec\nFormat profile                           : &lt;a class=&quot;__cf_email__&quot; href=&quot;/cdn-cgi/l/email-protection&quot; data-cfemail=&quot;753d1c121d3539415b44&quot;&gt;[email&amp;#160;protected]&lt;/a&gt;&lt;script cf-hash='f9e31' type=&quot;text/javascript&quot;&gt;\n/* &lt;![CDATA[ */!function(){try{var t=&quot;currentScript&quot;in document?document.currentScript:function(){for(var t=document.getElementsByTagName(&quot;script&quot;),e=t.length;e--;)if(t[e].getAttribute(&quot;cf-hash&quot;))return t[e]}();if(t&amp;&amp;t.previousSibling){var e,r,n,i,c=t.previousSibling,a=c.getAttribute(&quot;data-cfemail&quot;);if(a){for(e=&quot;&quot;,r=parseInt(a.substr(0,2),16),n=2;a.length-n;n+=2)i=parseInt(a.substr(n,2),16)^r,e+=String.fromCharCode(i);e=document.createTextNode(e),c.parentNode.replaceChild(e,c)}}}catch(u){}}();/* ]]&gt; */&lt;/script&gt;\nFormat settings, CABAC                   : Yes\nFormat settings, ReFrames                : 3 frames\nCodec ID                                 : avc1\nCodec ID/Info                            : Advanced Video Coding\nDuration                                 : 1h 57mn\nBit rate mode                            : Variable\nBit rate                                 : 2 058 Kbps\nMaximum bit rate                         : 40.0 Mbps\nWidth                                    : 720 pixels\nHeight                                   : 304 pixels\nDisplay aspect ratio                     : 2.35:1\nFrame rate mode                          : Constant\nFrame rate                               : 24.000 fps\nColor space                              : YUV\nChroma subsampling                       : 4:2:0\nBit depth                                : 8 bits\nScan type                                : Progressive\nBits/(Pixel*Frame)                       : 0.392\nStream size                              : 1.68 GiB (84%)\nTitle                                    : The Fourth State 2012 BRRiP x264 AC3-OFFLiNE\nWriting library                          : x264 core 130 r2273 b3065e6\n\nAudio\nID                                       : 2\nFormat                                   : AC-3\nFormat/Info                              : Audio Coding 3\nMode extension                           : CM (complete main)\nFormat settings, Endianness              : Big\nCodec ID                                 : ac-3\nDuration                                 : 1h 57mn\nBit rate mode                            : Constant\nBit rate                                 : 384 Kbps\nChannel(s)                               : 6 channels\nChannel positions                        : Front: L C R, Side: L R, LFE\nSampling rate                            : 48.0 KHz\nBit depth                                : 16 bits\nCompression mode                         : Lossy\nStream size                              : 322 MiB (16%)\nTitle                                    : 5.1\nLanguage                                 : English\n\nScreens: &lt;a href=&quot;\nhttp://i.imgur.com/0QfjoeA.png&quot; rel=&quot;nofollow&quot; target=&quot;_NEW&quot;&gt;\nhttp://i.imgur.com/0QfjoeA.png&lt;/a&gt; &lt;a href=&quot;\nhttp://i.imgur.com/x0KNQwx.png&quot; rel=&quot;nofollow&quot; target=&quot;_NEW&quot;&gt;\nhttp://i.imgur.com/x0KNQwx.png&lt;/a&gt; &lt;a href=&quot;\nhttp://i.imgur.com/lXkbDZ9.png&quot; rel=&quot;nofollow&quot; target=&quot;_NEW&quot;&gt;\nhttp://i.imgur.com/lXkbDZ9.png&lt;/a&gt; &lt;a href=&quot;\nhttp://i.imgur.com/EXRhEJs.png&quot; rel=&quot;nofollow&quot; target=&quot;_NEW&quot;&gt;\nhttp://i.imgur.com/EXRhEJs.png&lt;/a&gt;","torrent":{"xt":"urn:btih:c76e12e7fef640782c41d9b3c042ca520abc6b39","amp;dn":"The+Fourth+State+2012+BRRiP+x264+AC3-OFFLiNE","amp;tr":["udp%3A%2F%2Ftracker.openbittorrent.com%3A80","udp%3A%2F%2Fopen.demonii.com%3A1337","udp%3A%2F%2Ftracker.coppersurfer.tk%3A6969","udp%3A%2F%2Fexodus.desync.com%3A6969"],"infoHash":"c76e12e7fef640782c41d9b3c042ca520abc6b39","infoHashBuffer":{"type":"Buffer","data":[199,110,18,231,254,246,64,120,44,65,217,179,192,66,202,82,10,188,107,57]},"announce":[],"urlList":[]}}